<svg xmlns="http://www.w3.org/2000/svg" viewBox="0 0 1024 1024" width="1024" height="1024">
  <!-- White background with smooth macOS rounded corners -->
  <rect x="0" y="0" width="1024" height="1024" rx="228" ry="228" fill="#ffffff"/>

  <!-- Logo centered: viewBox 612x603, scale to ~700px wide, center in 1024 -->
  <!-- scaled: 612*1.14=698, 603*1.14=687 -->
  <!-- x offset: (1024-698)/2 = 163, y offset: (1024-687)/2 = 168 -->
  <g transform="translate(163, 168) scale(1.14)">
    <path d="M 330.0 594.5 L 268.0 591.5 L 206.0 575.5 L 151.0 548.5 L 108.5 514.0 L 130.0 509.5 L 159.0 497.5 L 185.0 479.5 L 200.5 462.0 L 210.5 444.0 L 214.5 428.0 L 211.5 408.0 L 201.5 391.0 L 231.0 370.5 L 270.5 326.0 L 372.5 170.0 L 391.0 135.5 L 371.0 140.5 L 345.0 155.5 L 309.0 186.5 L 274.5 222.0 L 184.5 327.0 L 178.0 364.5 L 162.0 369.5 L 113.0 396.5 L 30.5 452.0 L 43.5 433.0 L 30.5 406.0 L 24.0 380.5 L 68.0 371.5 L 152.0 342.5 L 161.0 342.5 L 173.0 349.5 L 174.5 328.0 L 206.5 291.0 L 136.0 303.5 L 110.0 279.5 L 85.0 267.5 L 40.0 264.5 L 13.5 270.0 L 23.5 219.0 L 47.5 163.0 L 78.5 118.0 L 117.5 80.0 L 103.0 20.5 L 166.0 12.5 L 255.0 7.5 L 342.0 9.5 L 403.0 17.5 L 463.0 60.5 L 512.5 107.0 L 560.5 161.0 L 598.5 216.0 L 581.5 293.0 L 554.5 366.0 L 532.0 411.5 L 560.5 321.0 L 574.0 244.5 L 558.5 310.0 L 528.5 395.0 L 489.5 478.0 L 448.0 550.5 L 386.0 522.5 L 334.0 505.5 L 277.0 492.5 L 204.0 482.5 L 194.0 482.5 L 166.0 505.5 L 133.5 522.0 L 308.0 542.5 L 450.0 551.5 L 506.5 475.0 L 547.5 408.0 L 582.5 334.0 L 602.0 274.5 L 601.5 335.0 L 590.5 391.0 L 566.5 448.0 L 534.5 494.0 L 496.0 531.5 L 464.0 553.5 L 437.0 567.5 L 390.0 584.5 Z M 562.5 189.0 L 498.5 112.0 L 451.0 64.5 L 413.0 32.5 L 427.5 68.0 L 434.5 100.0 L 437.5 129.0 L 436.5 182.0 L 469.0 171.5 L 511.0 169.5 L 535.0 174.5 Z M 263.5 354.0 L 378.0 313.5 L 431.0 291.5 L 470.0 271.5 L 503.5 245.0 L 416.0 261.5 L 306.0 291.5 Z M 93.0 494.5 L 77.0 494.5 L 63.0 489.5 L 53.5 477.0 L 53.5 468.0 L 57.5 460.0 L 86.0 438.5 L 133.0 411.5 L 153.0 404.5 L 172.0 408.5 L 180.5 419.0 L 181.5 433.0 L 167.5 457.0 L 143.0 476.5 L 120.0 487.5 Z M 46.0 352.5 L 25.0 348.5 L 11.5 339.0 L 7.5 331.0 L 7.5 320.0 L 13.5 309.0 L 30.0 296.5 L 54.0 289.5 L 78.0 290.5 L 95.0 298.5 L 103.5 311.0 L 103.5 322.0 L 99.5 330.0 L 79.0 345.5 Z M 575.5 242.0 L 571.0 234.5 L 550.0 221.5 L 513.0 212.5 L 465.0 212.5 L 412.5 223.0 L 413.5 115.0 L 405.5 60.0 L 396.0 29.5 L 405.5 72.0 L 410.5 132.0 L 404.5 233.0 L 454.0 220.5 L 508.0 218.5 L 552.0 228.5 Z M 236.0 328.5 L 227.0 326.5 L 220.5 318.0 L 222.5 305.0 L 235.0 298.5 L 244.0 301.5 L 249.5 309.0 L 248.5 320.0 Z" fill="#000000" fill-rule="evenodd"/>
  </g>
</svg>
